<svg version="1.1" xmlns="http://www.w3.org/2000/svg" xmlns:xlink="http://www.w3.org/1999/xlink" width="169" height="169" viewBox="0,0,169,169"><defs><radialGradient cx="240" cy="180" r="84.5" gradientUnits="userSpaceOnUse" id="color-1"><stop offset="0" stop-color="#000000"/><stop offset="1" stop-color="#333333"/></radialGradient></defs><g transform="translate(-155.5,-95.5)"><g data-paper-data="{&quot;isPaintingLayer&quot;:true}" fill-rule="nonzero" stroke-linejoin="miter" stroke-miterlimit="10" stroke-dasharray="" stroke-dashoffset="0" style="mix-blend-mode: normal"><path d="M155.5,180c0,-46.66806 37.83194,-84.5 84.5,-84.5c46.66806,0 84.5,37.83194 84.5,84.5c0,46.66806 -37.83194,84.5 -84.5,84.5c-46.66806,0 -84.5,-37.83194 -84.5,-84.5z" fill="url(#color-1)" stroke="none" stroke-width="0" stroke-linecap="butt"/><path d="M235,260.83333c0,0 -17.17146,-20.22936 -25.51662,-40.79686c-8.34516,-20.5675 -9.48338,-28.58507 -9.48338,-39.87137c0,-11.02117 3.38505,-28.67322 9.24498,-43.28459c5.85992,-14.61138 25.75502,-37.71384 25.75502,-37.71384" fill="none" stroke="#808080" stroke-width="5" stroke-linecap="round"/><path d="M162.70369,150.92064c4.27337,-1.90329 46.55343,-21.13598 53.29994,-20.7791c10.12292,0.5355 34.38007,0.11713 52.32367,10.617c10.4372,6.10743 26.70077,32.64071 33.34009,40.09403c4.77497,5.36041 15.62893,37.76336 15.62893,37.76336" data-paper-data="{&quot;index&quot;:null}" fill="none" stroke="#808080" stroke-width="5" stroke-linecap="round"/><path d="M316.15548,139.75714c0,0 -9.79517,32.73857 -14.39341,38.25132c-6.39358,7.66515 -21.78628,34.71296 -32.01949,41.15636c-17.59289,11.07746 -41.85083,11.44764 -51.95099,12.31183c-6.73135,0.57595 -49.61411,-17.27254 -53.94708,-19.03595" data-paper-data="{&quot;index&quot;:null}" fill="none" stroke="#808080" stroke-width="5" stroke-linecap="round"/></g></g></svg>