<svg version="1.1" xmlns="http://www.w3.org/2000/svg" xmlns:xlink="http://www.w3.org/1999/xlink" width="34.86855" height="99.07495" viewBox="0,0,34.86855,99.07495"><g transform="translate(-222.56573,-119.08934)"><g data-paper-data="{&quot;isPaintingLayer&quot;:true}" fill="#000000" fill-rule="nonzero" stroke="none" stroke-width="0.5" stroke-linecap="butt" stroke-linejoin="miter" stroke-miterlimit="10" stroke-dasharray="" stroke-dashoffset="0" style="mix-blend-mode: normal"><path d="M242.59892,124.94095c-0.37988,0.04895 -0.64982,0.02353 -0.64982,0.02353c-3.82674,-0.40317 -11.03385,0.86038 -12.90606,4.83927c-0.50465,1.07249 -0.68672,4.99155 -0.72915,5.76159c-0.03463,0.62828 -0.2755,5.57278 -0.06449,6.62091c1.11558,5.54136 7.12589,8.04507 12.135,8.35038c3.50548,0.21366 5.27735,-0.33216 8.38619,-1.70438c4.37837,-3.69171 4.80157,-14.72019 1.17174,-19.23159c-1.71011,-2.12544 -4.5229,-3.30325 -6.86023,-4.51087zM240.98127,119.30864c1.01561,-0.44071 2.10762,-0.08091 2.10762,-0.08091l2.57058,0.88446c3.11675,1.61711 6.43744,3.18208 8.68436,6.0177c3.28956,4.15148 3.1605,9.20304 3.04811,14.17258c-0.06124,2.70787 0.25055,4.47778 -0.74006,7.14856c-1.34419,3.62403 -2.15736,3.7637 -4.87852,6.11439c-4.2432,1.92993 -6.99893,2.83067 -11.76419,2.56395c-7.55332,-0.42277 -15.48766,-4.74622 -17.227,-12.70673c-0.38135,-1.74534 -0.16281,-6.45663 -0.06449,-8.17598c0.11482,-2.00802 0.31181,-6.04104 1.2859,-7.89709c3.01549,-5.74577 10.75837,-8.14433 16.97772,-8.04093z"/><path d="M239.76497,189.98837c-2.80265,0 -2.80265,-2.80265 -2.80265,-2.80265v-1.13822c0.00262,-10.34076 0.13014,-21.42697 1.4634,-31.66775c0,0 0.36663,-2.77857 3.1452,-2.41194c2.77857,0.36663 2.41194,3.1452 2.41194,3.1452c-1.33657,9.9805 -1.41792,20.8498 -1.41523,30.93448v1.13822c0,0 0,2.80265 -2.80265,2.80265z"/><path d="M228.13773,218.14761c-2.79087,-0.25668 -2.53419,-3.04755 -2.53419,-3.04755l0.13574,-1.44996c0.50304,-9.94482 1.23742,-21.70206 10.1806,-27.8086c0,0 2.34019,-1.5422 3.88239,0.79798c1.5422,2.34019 -0.79798,3.88239 -0.79798,3.88239c-7.23509,4.52329 -7.28113,15.78594 -7.66686,23.4114l-0.15214,1.68015c0,0 -0.25668,2.79087 -3.04755,2.53419z"/><path d="M247.97391,215.5276l-0.15214,-1.68015c-0.38572,-7.62546 -0.43177,-18.88811 -7.66686,-23.4114c0,0 -2.34018,-1.5422 -0.79799,-3.88238c1.5422,-2.34019 3.88239,-0.79799 3.88239,-0.79799c8.94319,6.10654 9.67756,17.86378 10.1806,27.8086l0.13574,1.44997c0,0 0.25668,2.79087 -2.5342,3.04755c-2.79087,0.25668 -3.04755,-2.5342 -3.04755,-2.5342z" data-paper-data="{&quot;index&quot;:null}"/><path d="M243.53759,184.84922c-2.50094,-1.26497 -1.23597,-3.76591 -1.23597,-3.76591l0.32966,-0.42904c0.43841,-2.15532 0.74343,-4.14604 1.59514,-6.20337c1.01216,-2.44491 2.85717,-5.08662 2.95958,-7.87765c0.06124,-1.6691 -1.62348,-2.05495 -2.58877,-2.96768c-0.53403,-0.50495 -3.65288,-4.08353 -4.3489,-4.87738c0,0 -1.84763,-2.10739 0.25976,-3.95502c2.10739,-1.84763 3.95502,0.25976 3.95502,0.25976c2.92581,3.33729 7.91384,6.48653 8.31904,11.22015c0.43969,5.13661 -3.65469,10.53011 -4.65689,15.51277l-0.82176,1.84741c0,0 -1.26497,2.50094 -3.76591,1.23597z"/><path d="M238.34056,187.87424c-2.39585,1.45422 -3.85007,-0.94164 -3.85007,-0.94164l-0.86982,-1.59519c-2.82109,-2.7994 -7.47751,-7.19088 -7.87428,-11.42341c-0.12214,-1.30286 0.49037,-2.57236 0.81137,-3.84096c1.42735,-5.64102 5.10292,-12.76303 9.35871,-16.59272c0,0 2.11974,-1.83346 3.9532,0.28626c1.83346,2.11974 -0.28626,3.9532 -0.28626,3.9532c-2.93026,2.38507 -5.50139,7.6166 -6.83744,11.24204c-0.53966,1.4644 -1.48974,2.90394 -1.41566,4.46284c0.11731,2.46853 4.61055,6.33148 6.23097,7.92636l1.72094,2.67314c0,0 1.45422,2.39585 -0.94164,3.85007z"/></g></g></svg>